<svg version="1.1" xmlns="http://www.w3.org/2000/svg" width="600" height="600" viewBox="0 0 1200 1200"><path d="M0 0 C396 0 792 0 1200 0 C1200 396 1200 792 1200 1200 C804 1200 408 1200 0 1200 C0 804 0 408 0 0 Z " fill="#873814" transform="translate(0,0)" /><path d="M0 0 C1.57194374 -0.01913956 1.57194374 -0.01913956 3.17564392 -0.03866577 C4.87256126 -0.04200424 4.87256126 -0.04200424 6.60375977 -0.04541016 C8.34774803 -0.05539536 8.34774803 -0.05539536 10.12696838 -0.06558228 C12.5873964 -0.07571373 15.04785193 -0.08039914 17.50830078 -0.08007812 C21.27690785 -0.08445147 25.04434436 -0.12076854 28.81274414 -0.15869141 C31.201412 -0.16455931 33.59008544 -0.16852888 35.97875977 -0.17041016 C37.10801376 -0.18478119 38.23726776 -0.19915222 39.40074158 -0.21395874 C40.45185623 -0.20780548 41.50297089 -0.20165222 42.5859375 -0.1953125 C43.50954575 -0.19816254 44.43315399 -0.20101257 45.38475037 -0.20394897 C48.6196392 0.44288907 49.79860345 1.7709888 51.85766602 4.29052734 C52.78320312 6.61450195 52.78320312 6.61450195 53.38500977 9.19287109 C53.73305664 10.63509033 53.73305664 10.63509033 54.08813477 12.10644531 C54.43811523 13.65162842 54.43811523 13.65162842 54.79516602 15.22802734 C55.05040039 16.30197754 55.30563477 17.37592773 55.56860352 18.48242188 C56.092707 20.69323899 56.61076188 22.90549862 57.12280273 25.11914062 C57.78110767 27.96013101 58.45638613 30.79607147 59.14282227 33.63037109 C62.49370417 47.49047306 65.66364172 61.39364395 68.85766602 75.29052734 C69.80607109 75.29932671 69.80607109 75.29932671 70.77363586 75.30830383 C77.34352893 75.37214721 83.91292802 75.45654315 90.48242188 75.55297852 C92.9354807 75.58627061 95.38861692 75.61428904 97.84179688 75.63696289 C101.36434979 75.67042964 104.88619066 75.72274249 108.40844727 75.77880859 C110.0585656 75.78839348 110.0585656 75.78839348 111.74201965 75.798172 C113.27326729 75.82786324 113.27326729 75.82786324 114.83544922 75.8581543 C116.18447075 75.87480888 116.18447075 75.87480888 117.56074524 75.89179993 C120.31927119 76.37065838 121.22259895 77.04589662 122.85766602 79.29052734 C123.49881343 84.41970662 123.49881343 84.41970662 121.63090515 86.95674133 C119.32181305 88.69358251 117.98337737 88.65372192 115.11083984 88.63110352 C114.15007034 88.63087692 113.18930084 88.63065033 112.19941711 88.63041687 C111.16495956 88.61493301 110.13050201 88.59944916 109.06469727 88.58349609 C108.00353195 88.57925125 106.94236664 88.57500641 105.8490448 88.57063293 C102.45582837 88.5538244 99.0632033 88.51616753 95.67016602 88.47802734 C93.37134646 88.46298335 91.07251761 88.44929445 88.77368164 88.43701172 C83.1348076 88.40391379 77.49627905 88.35369264 71.85766602 88.29052734 C72.06319092 89.04062073 72.26871582 89.79071411 72.48046875 90.5635376 C76.54655213 105.4157167 80.38751802 120.28877247 83.85766602 135.29052734 C85.00202177 140.20753844 86.14865299 145.12401886 87.29516602 150.04052734 C87.59350342 151.32032471 87.89184082 152.60012207 88.19921875 153.91870117 C92.16980722 170.93658524 96.20010904 187.92327019 100.67163086 204.81713867 C103.11666906 214.12907552 105.23821084 223.50547004 107.3215332 232.90380859 C107.81003769 235.07849889 108.315901 237.24778079 108.83422852 239.41552734 C109.11008789 240.57052734 109.38594727 241.72552734 109.67016602 242.91552734 C110.02014648 244.35798828 110.02014648 244.35798828 110.37719727 245.82958984 C110.85766602 248.29052734 110.85766602 248.29052734 110.85766602 252.29052734 C174.87766602 251.96052734 238.89766602 251.63052734 304.85766602 251.29052734 C306.17766602 246.01052734 307.49766602 240.73052734 308.85766602 235.29052734 C309.5685872 232.52095181 310.28342814 229.75237158 311.00610352 226.98583984 C311.37254946 225.57704678 311.73875148 224.16819026 312.10473633 222.75927734 C312.28895142 222.05029297 312.4731665 221.34130859 312.66296387 220.61083984 C315.89855418 208.14268983 318.9911772 195.6594606 321.82983398 183.09375 C323.3942483 176.19744486 325.12070711 169.36524097 326.96630859 162.53955078 C328.73948753 155.90934213 330.2767002 149.2331336 331.79516602 142.54052734 C333.91019096 133.21859923 336.17436529 123.95462682 338.67773438 114.72900391 C341.02465006 105.98118186 342.92928515 97.13796309 344.85766602 88.29052734 C344.27550827 88.29718918 343.69335052 88.30385101 343.09355164 88.31071472 C337.04305536 88.37700425 330.99266197 88.42230127 324.94189453 88.45532227 C322.68273734 88.47042337 320.42360952 88.49090576 318.16455078 88.5168457 C314.92025509 88.55317042 311.67634646 88.57024043 308.43188477 88.58349609 C307.41930099 88.59897995 306.40671722 88.61446381 305.3634491 88.63041687 C303.95232597 88.63075676 303.95232597 88.63075676 302.51269531 88.63110352 C301.6844072 88.63776535 300.85611908 88.64442719 300.00273132 88.65129089 C297.31690281 88.19958016 296.44401195 87.48035758 294.85766602 85.29052734 C294.48266602 81.72802734 294.48266602 81.72802734 294.85766602 78.29052734 C298.27734088 76.0107441 299.54439303 76.02970121 303.56665039 76 C304.73796509 75.9872403 305.90927979 75.97448059 307.11608887 75.96133423 C309.01457581 75.95799576 309.01457581 75.95799576 310.95141602 75.95458984 C312.8987262 75.94460464 312.8987262 75.94460464 314.88537598 75.93441772 C317.63252082 75.92244737 320.37953991 75.91873677 323.12670898 75.91992188 C326.64772915 75.92012536 330.16794483 75.89279326 333.68877411 75.85837746 C337.04716772 75.83080524 340.40541056 75.83196071 343.76391602 75.82958984 C345.02957397 75.81521881 346.29523193 75.80084778 347.59924316 75.78604126 C348.77055786 75.79219452 349.94187256 75.79834778 351.14868164 75.8046875 C352.18109985 75.80183746 353.21351807 75.79898743 354.27722168 75.79605103 C356.85766602 76.29052734 356.85766602 76.29052734 358.71936035 78.11239624 C361.98277661 84.35689512 357.33751401 94.55901786 355.64935303 100.8840332 C354.72458058 104.35221641 353.81735814 107.8249532 352.91235352 111.29833984 C352.64263229 112.33314484 352.64263229 112.33314484 352.36746216 113.38885498 C350.87125136 119.16481244 349.51648777 124.96424215 348.23266602 130.79052734 C346.59846713 138.19042707 344.79630673 145.52689674 342.85766602 152.85302734 C339.48964712 165.58927788 336.46411371 178.3926046 333.47613525 191.22264099 C332.62599124 194.87070189 331.77358379 198.51823103 330.92016602 202.16552734 C330.7481366 202.90122955 330.57610718 203.63693176 330.39886475 204.39492798 C328.03612286 214.48280734 325.56404427 224.53062071 322.86791992 234.53564453 C321.71560007 238.84514632 320.65206645 243.14232401 319.77563477 247.51708984 C319.60773438 248.3453125 319.43983398 249.17353516 319.2668457 250.02685547 C318.96488033 251.55606311 318.67882957 253.08855302 318.41333008 254.62451172 C317.4199377 259.6708488 315.90763519 262.14562588 311.85766602 265.29052734 C308.92344747 265.999764 306.07909466 265.94749484 303.07206726 265.89611816 C301.74492957 265.90335994 301.74492957 265.90335994 300.39098102 265.910748 C297.42585278 265.92098771 294.46209473 265.89565266 291.49707031 265.87060547 C289.37140767 265.87087209 287.24574428 265.87340494 285.12008667 265.8780365 C280.54192042 265.88344358 275.96413914 265.87337988 271.38602257 265.85154724 C264.14566994 265.81771186 256.90564416 265.82176566 249.66523743 265.83166504 C232.98501399 265.84866562 216.30495673 265.81588036 199.62477112 265.78273773 C184.34552019 265.75288254 169.06645035 265.73352941 153.78717357 265.75440359 C146.59123434 265.76279788 139.39587854 265.74697736 132.2000221 265.71260834 C127.72001346 265.69615286 123.24019476 265.70032283 118.7601738 265.7100544 C116.68492594 265.7103142 114.60965632 265.70200191 112.53448296 265.68441582 C109.69717935 265.6615438 106.86153297 265.66953564 104.0242157 265.68493652 C103.20659325 265.67085267 102.3889708 265.65676881 101.54657191 265.64225817 C95.5268826 265.72334489 91.55526407 267.54669683 86.85766602 271.29052734 C81.74257705 276.80943913 80.3809099 281.0453013 80.54907227 288.47412109 C81.31957101 295.50614131 84.82746288 299.79145262 90.17407227 304.16162109 C94.27452486 306.91111251 98.70145082 306.43462285 103.42967224 306.42855835 C104.31554411 306.43137963 105.20141599 306.43420091 106.11413246 306.43710768 C109.09432624 306.44546715 112.07448294 306.44679307 115.0546875 306.44824219 C117.18654485 306.45290933 119.31840121 306.45805273 121.45025635 306.46363831 C126.04687342 306.47492706 130.64348397 306.4833574 135.2401104 306.48975754 C142.50434166 306.50042279 149.76852611 306.52066276 157.0327301 306.5428772 C177.69123191 306.6048541 198.34973094 306.6588531 219.00830078 306.69189453 C230.4133031 306.71021604 241.81822704 306.73911917 253.22317177 306.77989924 C259.26177665 306.80100758 265.30028259 306.81643195 271.33892632 306.81870651 C277.01637455 306.82084755 282.69361668 306.83666118 288.3710022 306.86309624 C290.45757474 306.87031099 292.5441722 306.87237973 294.63075447 306.86899376 C297.47364128 306.86511656 300.31586408 306.87949673 303.15867615 306.89852905 C303.9893142 306.89299936 304.81995226 306.88746966 305.67576116 306.8817724 C308.95994501 306.91987115 311.42900178 307.06774432 314.37010288 308.59627724 C315.85766602 310.29052734 315.85766602 310.29052734 316.35766602 313.79052734 C315.85766602 317.29052734 315.85766602 317.29052734 314.12426758 318.97729492 C311.57050397 320.45690441 310.02230568 320.70832735 307.09204102 320.80224609 C305.75786133 320.85541992 305.75786133 320.85541992 304.39672852 320.90966797 C303.47633789 320.93222656 302.55594727 320.95478516 301.60766602 320.97802734 C300.67180664 321.0121875 299.73594727 321.04634766 298.77172852 321.08154297 C296.46716069 321.16384896 294.16296482 321.23305364 291.85766602 321.29052734 C292.16510742 321.90412109 292.47254883 322.51771484 292.78930664 323.14990234 C296.73145784 331.27923791 297.36039892 340.19067662 295.19750977 348.97021484 C291.32748697 358.65364851 284.33967992 364.34415739 275.10766602 368.54052734 C265.57502408 370.74036779 257.23312091 369.19327299 248.73266602 364.60302734 C241.00871507 358.39028419 235.74963793 351.32515123 234.47875977 341.30224609 C234.20672738 334.39613356 235.50453168 329.29654306 238.85766602 323.29052734 C239.18766602 322.63052734 239.51766602 321.97052734 239.85766602 321.29052734 C212.13766602 320.96052734 184.41766602 320.63052734 155.85766602 320.29052734 C157.83766602 323.75552734 157.83766602 323.75552734 159.85766602 327.29052734 C162.27246851 335.722966 161.78627498 345.12671353 158.12329102 353.07177734 C153.77615473 360.69268294 148.05085312 365.47550848 139.60766602 368.04052734 C130.30626709 370.32176475 123.25730128 370.05449959 114.85766602 365.29052734 C114.22860352 364.93990234 113.59954102 364.58927734 112.95141602 364.22802734 C106.83061477 360.36225814 103.26324231 354.61279859 100.48266602 348.04052734 C98.78289082 337.84187614 99.26685501 330.13598905 104.85766602 321.29052734 C103.8302832 321.15517578 102.80290039 321.01982422 101.74438477 320.88037109 C90.29469324 319.18196555 81.51339905 316.0685563 73.85766602 306.85302734 C72.81773345 305.35921534 71.81327057 303.83964127 70.85766602 302.29052734 C70.49801758 301.71173828 70.13836914 301.13294922 69.76782227 300.53662109 C66.16200406 293.10896793 66.44731875 282.03990189 68.77172852 274.21240234 C69.95900919 271.71528299 71.25260012 269.5393136 72.85766602 267.29052734 C73.3152832 266.63697266 73.77290039 265.98341797 74.24438477 265.31005859 C78.62900016 259.67612813 84.95175644 255.23834799 91.85766602 253.29052734 C94.19083789 253.26307826 96.52452487 253.26058037 98.85766602 253.29052734 C96.74034143 244.70286922 94.56193117 236.13340165 92.32666016 227.57568359 C89.00463969 214.84947322 85.83716494 202.10088191 82.85766602 189.29052734 C82.30693982 186.92723326 81.75615475 184.5639529 81.20532227 182.20068359 C80.76820923 180.32485596 80.76820923 180.32485596 80.32226562 178.41113281 C73.46141349 148.96873941 73.46141349 148.96873941 66.03710938 119.66503906 C62.36725108 105.69435103 59.15881788 91.61608619 55.92016602 77.54052734 C50.05554398 51.9121388 50.05554398 51.9121388 43.41796875 26.47631836 C43.22662354 25.77434326 43.03527832 25.07236816 42.83813477 24.34912109 C42.6720874 23.75413818 42.50604004 23.15915527 42.33496094 22.54614258 C41.61689963 19.15270605 41.26105165 15.73513091 40.85766602 12.29052734 C40.27550827 12.29718918 39.69335052 12.30385101 39.09355164 12.31071472 C33.04305536 12.37700425 26.99266197 12.42230127 20.94189453 12.45532227 C18.68273734 12.47042337 16.42360952 12.49090576 14.16455078 12.5168457 C10.92025509 12.55317042 7.67634646 12.57024043 4.43188477 12.58349609 C3.41930099 12.59897995 2.40671722 12.61446381 1.3634491 12.63041687 C-0.04767403 12.63075676 -0.04767403 12.63075676 -1.48730469 12.63110352 C-2.3155928 12.63776535 -3.14388092 12.64442719 -3.99726868 12.65129089 C-6.14233398 12.29052734 -6.14233398 12.29052734 -7.94108582 10.99189758 C-9.14233398 9.29052734 -9.14233398 9.29052734 -9.01733398 5.72802734 C-7.64901699 0.35249629 -5.04265638 0.0416587 0 0 Z " fill="#E0DCE2" transform="translate(377.142333984375,114.70947265625)" /><path d="M0 0 C3.57776916 2.78749886 6.79602203 5.79602203 10 9 C10.62132812 9.53882813 11.24265625 10.07765625 11.8828125 10.6328125 C20.47543885 18.30067189 25.81637487 30.1252409 29 41 C29.35707031 42.18335938 29.71414063 43.36671875 30.08203125 44.5859375 C31.38739135 49.93414845 31.34248997 55.27083271 31.3125 60.75 C31.30686035 61.81968018 31.3012207 62.88936035 31.29541016 63.99145508 C31.03667348 80.77987879 25.254907 94.72755715 15 108 C14.55269531 108.61230469 14.10539063 109.22460938 13.64453125 109.85546875 C2.59526002 124.01538525 -16.50429506 132.54042375 -34 135 C-53.70997539 136.98402175 -72.71895691 131.14506236 -88.4375 119.125 C-102.70391471 106.7942295 -110.20419019 92.907101 -115 75 C-115.17958252 74.35353516 -115.35916504 73.70707031 -115.54418945 73.04101562 C-119.81475172 53.91841222 -112.99472718 35.13916031 -103.203125 19.046875 C-93.26214161 4.18100076 -76.9440676 -7.43005377 -59.4140625 -11.60083008 C-38.5818345 -15.04547943 -17.59173702 -11.73466905 0 0 Z " fill="#873915" transform="translate(628,128)" /><path d="M0 0 C4.55346694 -0.08421921 9.10641796 -0.14891446 13.66055298 -0.18212891 C15.62875768 -0.19933004 17.5968131 -0.23158555 19.56481934 -0.2644043 C31.26662257 -0.30781034 42.99696433 1.26383069 53.6998291 6.23754883 C54.36369629 6.53870605 55.02756348 6.83986328 55.71154785 7.15014648 C61.6597831 9.96658959 66.62472595 13.49376783 71.3873291 18.05004883 C72.08084473 18.69200195 72.77436035 19.33395508 73.4888916 19.99536133 C89.14202843 35.89024544 91.68667391 57.91599701 91.70202637 79.15185547 C91.41698035 100.30766699 83.27309149 122.00861825 68.5123291 137.36254883 C58.35756776 147.04321739 45.98475577 153.62983721 32.3873291 157.05004883 C31.2013916 157.40196289 30.0154541 157.75387695 28.7935791 158.11645508 C23.58419772 159.40008336 18.47588637 159.30359368 13.1373291 159.23754883 C12.01793945 159.23037842 10.8985498 159.22320801 9.74523926 159.21582031 C5.6254963 159.17921604 1.50664758 159.11831554 -2.6126709 159.05004883 C-3.94268127 159.02847717 -3.94268127 159.02847717 -5.29956055 159.00646973 C-12.2792792 158.89113942 -19.25847822 158.75594822 -26.2376709 158.61254883 C-27.23866821 158.59308197 -28.23966553 158.57361511 -29.27099609 158.55355835 C-32.12722168 158.49652172 -34.98320618 158.43261062 -37.8392334 158.36645508 C-38.71091156 158.34972748 -39.58258972 158.33299988 -40.48068237 158.31576538 C-46.49787804 158.16484169 -46.49787804 158.16484169 -47.6126709 157.05004883 C-47.75382251 154.37946032 -47.65514197 151.72572645 -47.6126709 149.05004883 C-41.42771603 148.26465773 -35.96473424 148.05004883 -29.6126709 148.05004883 C-29.6126709 102.84004883 -29.6126709 57.63004883 -29.6126709 11.05004883 C-34.8926709 10.72004883 -40.1726709 10.39004883 -45.6126709 10.05004883 C-46.6126709 9.05004883 -46.6126709 9.05004883 -46.71032715 7.20239258 C-46.67777507 5.15161133 -46.64522298 3.10083008 -46.6126709 1.05004883 C-31.07614846 0.64434479 -15.53896124 0.29766734 0 0 Z M-13.6126709 10.05004883 C-13.6126709 55.92004883 -13.6126709 101.79004883 -13.6126709 149.05004883 C-7.67202134 150.53521122 -1.70064329 150.3522738 4.39147949 150.40014648 C5.91084287 150.41653729 7.43013476 150.44359778 8.94909668 150.48217773 C27.07415836 150.93872841 42.58616216 146.12806381 56.03186035 133.49536133 C62.91805923 126.34650478 67.15766428 118.38266649 70.3873291 109.05004883 C70.78178223 107.94918945 71.17623535 106.84833008 71.5826416 105.71411133 C77.94248171 84.85561476 76.87159703 56.9939926 67.03967285 37.35864258 C59.28135754 23.80745183 48.56242043 15.22468282 33.3873291 11.05004883 C25.70010053 9.07734613 18.36179548 8.77499649 10.4498291 8.86254883 C8.79563965 8.86351562 8.79563965 8.86351562 7.10803223 8.86450195 C0.09098836 8.90176059 -6.56135465 9.40902008 -13.6126709 10.05004883 Z " fill="#F3EFEE" transform="translate(144.6126708984375,531.949951171875)" /><path d="M0 0 C0.83917969 0.37898437 1.67835938 0.75796875 2.54296875 1.1484375 C10.36189837 5.24125089 15.82906282 11.660668 19.15625 19.84375 C22.31960311 31.67703387 21 43.81367568 21 56 C-3.75 56 -28.5 56 -54 56 C-51.87095895 80.31862665 -51.87095895 80.31862665 -39 100 C-36.44364391 101.8984334 -33.83098943 103.54359504 -31 105 C-30.28972656 105.36609375 -29.57945312 105.7321875 -28.84765625 106.109375 C-18.28596222 109.41262087 -5.56747911 107.82834963 4.359375 103.38671875 C6.65028088 102.18365427 8.85992499 100.91828672 11.0625 99.5625 C14 98 14 98 16.375 98.4375 C18.49612321 100.47704155 18.52804724 102.15440246 19 105 C4.08751839 116.8598089 -12.3112602 120.2511678 -31 119 C-41.90527396 117.30903768 -52.36619576 110.76514697 -59 102 C-70.48393597 83.88703902 -74.27946387 62.41040122 -69.86694336 41.37402344 C-66.02917467 25.77915992 -57.91362822 13.04866927 -44.5625 4 C-31.20548711 -3.70524439 -14.50076872 -6.56166046 0 0 Z " fill="#F4F1F0" transform="translate(327,573)" /><path d="M0 0 C12.09538062 7.8053003 18.9756437 19.57364649 22.875 33.3125 C26.8796645 54.83434213 23.20432108 76.03586882 10.92578125 94.1953125 C2.04784749 105.88139426 -11.50439954 114.1883778 -26.125 116.3125 C-29.73497522 116.59284007 -33.31784022 116.63768276 -36.9375 116.625 C-37.84564453 116.64111328 -38.75378906 116.65722656 -39.68945312 116.67382812 C-47.26355773 116.67917329 -52.36550368 115.25237408 -60.125 113.3125 C-59.795 126.5125 -59.465 139.7125 -59.125 153.3125 C-55.20132558 154.2934186 -51.71725663 154.58884651 -47.6875 154.8125 C-43.4022578 155.05080543 -39.310851 155.34467318 -35.125 156.3125 C-35.125 158.9525 -35.125 161.5925 -35.125 164.3125 C-53.275 164.3125 -71.425 164.3125 -90.125 164.3125 C-90.125 161.6725 -90.125 159.0325 -90.125 156.3125 C-88.58498293 155.97162666 -87.04287594 155.64019047 -85.5 155.3125 C-84.64148438 155.126875 -83.78296875 154.94125 -82.8984375 154.75 C-80.125 154.3125 -80.125 154.3125 -74.125 154.3125 C-74.125 106.4625 -74.125 58.6125 -74.125 9.3125 C-81.55 8.3225 -81.55 8.3225 -89.125 7.3125 C-90.125 6.3125 -90.125 6.3125 -90.22265625 4.46484375 C-90.19010417 2.4140625 -90.15755208 0.36328125 -90.125 -1.6875 C-87.31392806 -2.19694993 -84.50158411 -2.6952016 -81.6875 -3.1875 C-80.90439453 -3.33058594 -80.12128906 -3.47367188 -79.31445312 -3.62109375 C-74.00887806 -4.53810672 -68.50328742 -5.41734373 -63.125 -4.6875 C-61.125 -2.6875 -61.125 -2.6875 -60.9296875 0.3515625 C-60.95289063 1.53492188 -60.97609375 2.71828125 -61 3.9375 C-61.01804687 5.12601563 -61.03609375 6.31453125 -61.0546875 7.5390625 C-61.07789063 8.45429687 -61.10109375 9.36953125 -61.125 10.3125 C-60.55394531 9.80460938 -59.98289062 9.29671875 -59.39453125 8.7734375 C-42.41621009 -5.64059032 -20.10075588 -11.1772385 0 0 Z M-58.22784424 16.92420959 C-60.82791453 20.19738465 -60.71594373 23.11221793 -60.70605469 27.12280273 C-60.72620636 28.29669052 -60.72620636 28.29669052 -60.74676514 29.49429321 C-60.78472773 32.07848572 -60.79257247 34.66163987 -60.796875 37.24609375 C-60.80972964 39.04444302 -60.82318626 40.84278808 -60.83721924 42.64112854 C-60.86116425 46.40969542 -60.86858094 50.17789562 -60.86621094 53.9465332 C-60.86580421 58.77393356 -60.92043352 63.59898324 -60.98929977 68.42582607 C-61.03379193 72.13970214 -61.04188765 75.85301002 -61.03977203 79.56712532 C-61.04449005 81.34657976 -61.06217211 83.12604914 -61.0931015 84.90524101 C-61.65463454 94.21356961 -61.65463454 94.21356961 -58.42221069 102.4924469 C-56.31002594 103.8657941 -54.54519906 104.64171195 -52.125 105.3125 C-51.42114166 105.54593109 -50.71728333 105.77936218 -49.99209595 106.01986694 C-37.96713245 109.75673414 -24.12981244 108.0233307 -13.125 102.3125 C-1.86577978 94.84498777 3.75045348 82.87612711 6.47216797 69.96435547 C9.03040934 53.12337501 8.25774873 33.28566054 -2 19 C-7.23141258 12.53230833 -13.00679678 8.29671261 -21.125 6.3125 C-35.63823522 4.90648152 -46.72134119 8.10513444 -58.22784424 16.92420959 Z " fill="#F4F1F0" transform="translate(1079.125,575.6875)" /><path d="M0 0 C2 2 2 2 2.24050903 4.78408813 C2.2338472 6.562798 2.2338472 6.562798 2.22705078 8.37744141 C2.22734283 9.03122269 2.22763489 9.68500397 2.22793579 10.3585968 C2.22654065 12.52305296 2.2109712 14.68716636 2.1953125 16.8515625 C2.19158302 18.35085868 2.18873574 19.8501573 2.18673706 21.34945679 C2.17909548 25.29836743 2.1594426 29.24713129 2.1373291 33.19598389 C2.1168819 37.22438572 2.10773776 41.25281124 2.09765625 45.28125 C2.07619711 53.18756741 2.04205495 61.09376545 2 69 C2.9587352 68.37532837 3.9174704 67.75065674 4.90525818 67.10705566 C6.1769035 66.28282277 7.44864203 65.45873366 8.72045898 64.63476562 C9.35071739 64.22357483 9.9809758 63.81238403 10.63033295 63.38873291 C14.98679465 60.57179542 19.18769282 58.3247374 24.0625 56.5 C25.27035156 56.0359375 26.47820313 55.571875 27.72265625 55.09375 C33.6579555 53.11295883 39.03864784 52.7888817 45.25 52.75 C46.05824219 52.729375 46.86648438 52.70875 47.69921875 52.6875 C55.64445669 52.63665048 63.05997115 54.50138142 69.43359375 59.42578125 C80.86939767 70.9186216 79.15410777 89.85261548 79.31640625 104.7265625 C79.33701886 106.32653283 79.35801633 107.92649825 79.37937927 109.52645874 C79.43415578 113.7053017 79.4837579 117.88419011 79.53222656 122.06311035 C79.58276932 126.34029102 79.638283 130.61740698 79.69335938 134.89453125 C79.80039625 143.26296587 79.90195843 151.63145518 80 160 C80.99902344 160.13277344 81.99804688 160.26554688 83.02734375 160.40234375 C84.31769531 160.57894531 85.60804688 160.75554687 86.9375 160.9375 C88.22527344 161.11152344 89.51304687 161.28554688 90.83984375 161.46484375 C94 162 94 162 95 163 C95.125 166.5 95.125 166.5 95 170 C94 171 94 171 92.20933533 171.12025452 C91.42990067 171.11803391 90.650466 171.11581329 89.84741211 171.11352539 C88.96657455 171.11344986 88.085737 171.11337433 87.1782074 171.11329651 C86.22092239 171.10813522 85.26363739 171.10297394 84.27734375 171.09765625 C83.30213272 171.0962413 82.32692169 171.09482635 81.32215881 171.09336853 C78.19390857 171.08775133 75.06572877 171.07519593 71.9375 171.0625 C69.82226666 171.05748722 67.70703219 171.05292393 65.59179688 171.04882812 C60.39450393 171.03777631 55.19726392 171.02050016 50 171 C50 168.03 50 165.06 50 162 C54.95 161.67 59.9 161.34 65 161 C64.91411122 151.68909741 64.82016462 142.37836825 64.71247292 133.0676918 C64.66276711 128.7432392 64.61643734 124.41880803 64.578125 120.09423828 C64.54094414 115.91197746 64.49450081 111.72990816 64.44193649 107.54781342 C64.42356508 105.96126453 64.40839528 104.37467487 64.39665604 102.78806305 C64.84171858 84.59751636 64.84171858 84.59751636 57 69 C50.34021368 64.00516026 41.98843016 64.28749574 34 65 C28.41430104 66.15314027 23.29486608 67.91075111 18 70 C17.32762236 70.26147764 16.65524471 70.52295528 15.96249199 70.79235649 C7.66898589 74.19796214 7.66898589 74.19796214 2.17299271 80.87608719 C0.88392182 86.38678998 1.27834301 91.98835269 1.53515625 97.59765625 C1.56317055 99.40074296 1.58450491 101.20394468 1.59947205 103.00718689 C1.65647169 107.73022541 1.80350787 112.44622743 1.97003174 117.16650391 C2.12411458 121.99219538 2.19211647 126.81903671 2.26757812 131.64648438 C2.42796164 141.10122986 2.69151362 150.54892639 3 160 C8.28 160.66 13.56 161.32 19 162 C19 164.97 19 167.94 19 171 C12.8944529 171.02464513 6.78893449 171.04283371 0.68334961 171.05493164 C-1.39543156 171.05997288 -3.47420916 171.06680574 -5.55297852 171.07543945 C-8.53402586 171.08751422 -11.51502649 171.09323024 -14.49609375 171.09765625 C-15.89921059 171.10539818 -15.89921059 171.10539818 -17.33067322 171.11329651 C-18.62189842 171.11340981 -18.62189842 171.11340981 -19.93920898 171.11352539 C-20.70087875 171.115746 -21.46254852 171.11796661 -22.24729919 171.12025452 C-24 171 -24 171 -25 170 C-25.04092937 167.66702567 -25.04241723 165.33294775 -25 163 C-20.16059395 160.58029698 -18.08522941 161 -12 161 C-12 111.83 -12 62.66 -12 12 C-17.94 11.34 -23.88 10.68 -30 10 C-30 7.69 -30 5.38 -30 3 C-26.31349888 2.49244803 -22.62566225 1.99532488 -18.9375 1.5 C-17.89916016 1.35691406 -16.86082031 1.21382812 -15.79101562 1.06640625 C-4.96406047 -0.37718777 -4.96406047 -0.37718777 0 0 Z " fill="#F4F1F0" transform="translate(756,519)" /><path d="M0 0 C3.57776916 2.78749886 6.79602203 5.79602203 10 9 C10.62132812 9.53882813 11.24265625 10.07765625 11.8828125 10.6328125 C20.47543885 18.30067189 25.81637487 30.1252409 29 41 C29.35707031 42.18335938 29.71414063 43.36671875 30.08203125 44.5859375 C31.38739135 49.93414845 31.34248997 55.27083271 31.3125 60.75 C31.30686035 61.81968018 31.3012207 62.88936035 31.29541016 63.99145508 C31.03667348 80.77987879 25.254907 94.72755715 15 108 C14.55269531 108.61230469 14.10539063 109.22460938 13.64453125 109.85546875 C2.59526002 124.01538525 -16.50429506 132.54042375 -34 135 C-53.70997539 136.98402175 -72.71895691 131.14506236 -88.4375 119.125 C-102.70391471 106.7942295 -110.20419019 92.907101 -115 75 C-115.17958252 74.35353516 -115.35916504 73.70707031 -115.54418945 73.04101562 C-119.81475172 53.91841222 -112.99472718 35.13916031 -103.203125 19.046875 C-93.26214161 4.18100076 -76.9440676 -7.43005377 -59.4140625 -11.60083008 C-38.5818345 -15.04547943 -17.59173702 -11.73466905 0 0 Z M-87 18 C-100.40557065 33.47332764 -104.10013542 49.09592764 -103.23828125 69.04785156 C-102.33125409 80.28532327 -97.72031205 90.02951606 -91 99 C-90.30970703 99.96292969 -90.30970703 99.96292969 -89.60546875 100.9453125 C-81.51433001 111.34487411 -67.74132598 119.15990893 -55 122 C-51.37037147 122.27451574 -47.76345686 122.27962109 -44.125 122.25 C-43.18269531 122.25773437 -42.24039063 122.26546875 -41.26953125 122.2734375 C-24.50897147 122.22707357 -10.14128557 115.71057518 2.125 104.375 C14.48816434 91.4111961 19.42124746 75.65122379 19.13671875 58.12109375 C18.66958325 41.79377387 12.39154823 28.02174785 0.77734375 16.55078125 C-14.36834072 2.64060972 -30.69483967 -0.74646421 -50.68164062 -0.13183594 C-64.44250136 0.65068984 -77.35702143 8.57989459 -87 18 Z " fill="#E0DEE4" transform="translate(628,128)" /><path d="M0 0 C0 11.55 0 23.1 0 35 C-2.97 35 -5.94 35 -9 35 C-10.65527083 33.34472917 -10.44232504 31.25238325 -10.71875 28.9765625 C-10.84636719 27.955625 -10.97398437 26.9346875 -11.10546875 25.8828125 C-11.23566406 24.80773437 -11.36585938 23.73265625 -11.5 22.625 C-11.75766186 20.51268298 -12.01796198 18.40068563 -12.28125 16.2890625 C-12.39533203 15.34756348 -12.50941406 14.40606445 -12.62695312 13.43603516 C-12.94989316 10.86868808 -12.94989316 10.86868808 -14 8 C-16.07962802 6.78226802 -16.07962802 6.78226802 -18.625 5.875 C-19.46289062 5.54242187 -20.30078125 5.20984375 -21.1640625 4.8671875 C-32.21291814 1.48861181 -48.94680842 0.76977538 -59.39453125 6.2578125 C-64.62139148 9.48343545 -68.61053598 12.74653872 -70.57421875 18.7578125 C-71.95203077 26.01344642 -72.42871053 34.75176315 -68.421875 41.21484375 C-58.80838002 53.28453387 -43.59300603 58.88882294 -29.875 65 C-14.05749007 72.07682868 3.02060317 79.92540418 10 97 C12.74673466 107.81309469 11.31691717 118.6574344 5.79296875 128.22265625 C-1.90025788 140.13961515 -12.67297831 146.58113283 -26 151 C-47.60224831 155.14109033 -67.73678212 150.36844287 -88 143 C-87.67 130.79 -87.34 118.58 -87 106 C-83.7 106 -80.4 106 -77 106 C-76.97196289 106.81678223 -76.94392578 107.63356445 -76.91503906 108.47509766 C-76.75332613 112.19713744 -76.50267778 115.90807322 -76.25 119.625 C-76.20746094 120.91019531 -76.16492188 122.19539062 -76.12109375 123.51953125 C-75.66262219 130.68004901 -75.66262219 130.68004901 -71.49804688 136.16699219 C-68.37204079 137.79946203 -65.3703271 138.97035201 -62 140 C-61.20045898 140.25628174 -60.40091797 140.51256348 -59.57714844 140.77661133 C-53.96512797 142.27302389 -48.2766141 142.33352116 -42.5 142.3125 C-41.61441406 142.32861328 -40.72882812 142.34472656 -39.81640625 142.36132812 C-30.57605431 142.36811252 -21.28541299 139.88676992 -14.3125 133.5625 C-13.549375 132.716875 -12.78625 131.87125 -12 131 C-11.46375 130.4225 -10.9275 129.845 -10.375 129.25 C-6.20903463 122.43296575 -4.85273487 114.88605542 -6 107 C-8.6543649 98.33163925 -14.18372322 92.16302418 -22.09472656 87.86083984 C-27.33625275 85.20087963 -32.67979795 82.76538203 -38.03417969 80.34277344 C-43.12450981 78.03812941 -48.190715 75.68437367 -53.25 73.3125 C-54.18924316 72.88541748 -55.12848633 72.45833496 -56.09619141 72.01831055 C-68.37859295 66.26347308 -79.04117486 57.39435628 -85 45 C-87.3424296 35.99430782 -87.39088567 24.69566328 -83.31640625 16.234375 C-76.39483595 4.4861904 -67.09376572 -2.25892408 -54 -6 C-35.61157584 -10.09159051 -17.47357073 -5.82452358 0 0 Z " fill="#F4F1F0" transform="translate(703,540)" /><path d="M0 0 C11.63221135 9.07013264 17.0617574 22.68200507 19.4296875 36.89453125 C19.83438441 41.55052628 19.9076856 46.16028585 19.8671875 50.83203125 C19.85961426 52.06042725 19.85204102 53.28882324 19.84423828 54.55444336 C19.68544643 63.28046113 19.00822009 70.83447186 15.4296875 78.89453125 C15.00558594 79.85746094 14.58148437 80.82039062 14.14453125 81.8125 C10.66888673 88.83155926 5.93265473 94.37211891 0.4296875 99.89453125 C-0.41722656 100.77625 -0.41722656 100.77625 -1.28125 101.67578125 C-6.22356632 106.40111783 -12.20630072 108.6216699 -18.5703125 110.89453125 C-19.23804688 111.14332031 -19.90578125 111.39210938 -20.59375 111.6484375 C-32.26123562 115.2913424 -46.52485906 113.70760888 -57.2578125 108.14453125 C-70.04708825 100.66910951 -77.34398607 89.78660927 -81.546875 75.59765625 C-85.84098417 57.21726371 -85.57333755 35.78612922 -76.5703125 18.89453125 C-68.16364843 5.85136734 -58.04945619 -2.64164094 -43.5703125 -8.10546875 C-27.96283946 -11.29385253 -13.21030701 -9.09405193 0 0 Z M-56.36328125 11.85546875 C-68.05793244 26.92857472 -69.45594324 45.15157059 -67.25683594 63.51171875 C-65.7645308 73.19071062 -63.06329454 81.68523941 -57.5703125 89.89453125 C-56.9928125 90.82265625 -56.4153125 91.75078125 -55.8203125 92.70703125 C-48.27199967 100.04566873 -40.69203229 102.20022838 -30.52587891 102.20922852 C-21.25695039 102.05323878 -15.2099426 99.26972425 -8.421875 92.94140625 C4.50029529 78.65613783 4.28347199 60.04219499 3.4296875 41.89453125 C2.38822835 29.85234536 -1.76929007 17.48600552 -10.5703125 8.89453125 C-24.41357487 -1.37998988 -44.27472107 -1.36557093 -56.36328125 11.85546875 Z " fill="#F4F1F1" transform="translate(952.5703125,579.10546875)" /><path d="M0 0 C1.15105225 -0.00314209 2.30210449 -0.00628418 3.48803711 -0.00952148 C11.39903275 0.10040716 25.55048817 0.30048817 31.6875 6.4375 C31.77476223 8.21821246 31.79449041 10.0023314 31.78515625 11.78515625 C31.78032227 13.40454102 31.78032227 13.40454102 31.77539062 15.05664062 C31.76282227 16.76110352 31.76282227 16.76110352 31.75 18.5 C31.74548828 19.64017578 31.74097656 20.78035156 31.73632812 21.95507812 C31.72449747 24.78260351 31.7080141 27.6100264 31.6875 30.4375 C28.7175 30.4375 25.7475 30.4375 22.6875 30.4375 C21.08490453 26.8398367 20.41386807 23.71468469 20 19.8125 C19.5953865 16.94434699 19.5953865 16.94434699 18.6875 14.4375 C15.43270441 12.13731499 15.43270441 12.13731499 11.6875 11.4375 C11.10226562 11.25832031 10.51703125 11.07914063 9.9140625 10.89453125 C0.59857233 8.98240432 -10.26927677 9.6780005 -18.625 14.25 C-22.26579365 17.21343669 -23.95457857 19.17066429 -24.69921875 23.88671875 C-25.09661416 30.21855226 -23.93472542 34.19823016 -20.30859375 39.3671875 C-14.13761862 45.7676118 -6.67425444 48.60904875 1.4375 51.875 C29.72061786 63.32215105 29.72061786 63.32215105 36.1875 75.625 C39.13475306 83.20926454 38.89903944 92.68743043 35.91015625 100.25 C30.61822083 109.71799948 22.26519797 116.26339724 11.8828125 119.2421875 C-5.65743904 122.71221016 -22.78685027 119.8625337 -39.3125 113.4375 C-40.3125 112.4375 -40.3125 112.4375 -40.42602539 109.84545898 C-40.42078857 108.71954346 -40.41555176 107.59362793 -40.41015625 106.43359375 C-40.40693359 105.21865234 -40.40371094 104.00371094 -40.40039062 102.75195312 C-40.39201172 101.47255859 -40.38363281 100.19316406 -40.375 98.875 C-40.37048828 97.59173828 -40.36597656 96.30847656 -40.36132812 94.98632812 C-40.34949545 91.80333978 -40.33301068 88.62044238 -40.3125 85.4375 C-37.0125 85.4375 -33.7125 85.4375 -30.3125 85.4375 C-30.14234375 86.54609375 -29.9721875 87.6546875 -29.796875 88.796875 C-29.55292789 90.26055768 -29.30808924 91.72409196 -29.0625 93.1875 C-28.95292969 93.91710937 -28.84335937 94.64671875 -28.73046875 95.3984375 C-27.94992357 99.91738328 -27.17434533 102.60092334 -23.3125 105.4375 C-20.85964513 106.71342494 -20.85964513 106.71342494 -18.25 107.625 C-17.39277344 107.94855469 -16.53554688 108.27210938 -15.65234375 108.60546875 C-6.7878486 111.75761811 4.75196879 111.72262177 13.6875 108.4375 C18.6391426 105.91496509 21.9392675 102.77059127 23.6875 97.4375 C24.51832302 91.68108336 24.55331472 85.94649133 21.2109375 80.9921875 C17.92753431 77.64143245 13.81064969 75.58733799 9.6875 73.4375 C8.76324219 72.91736328 8.76324219 72.91736328 7.8203125 72.38671875 C3.3511007 69.97334438 -1.36143871 68.29450327 -6.125 66.5625 C-20.1731633 61.41686682 -30.56216077 56.08393486 -37.1484375 42.2421875 C-40.01245428 35.34163701 -40.64009368 27.3160069 -38.6640625 20.0546875 C-34.56111336 11.11236245 -27.17104634 6.09319068 -18.3125 2.4375 C-17.47460938 2.07140625 -16.63671875 1.7053125 -15.7734375 1.328125 C-10.5345503 -0.02003107 -5.39029165 0.01199821 0 0 Z " fill="#F3F0EF" transform="translate(413.3125,571.5625)" /><path d="M0 0 C2 2 2 2 2.24609566 3.93277168 C2.24333028 5.12465001 2.24333028 5.12465001 2.24050903 6.34060669 C2.24325836 7.25208466 2.24600769 8.16356262 2.24884033 9.10266113 C2.24164978 10.10535034 2.23445923 11.10803955 2.22705078 12.14111328 C2.22734283 13.19479095 2.22763489 14.24846863 2.22793579 15.33407593 C2.22653838 18.82957084 2.21095776 22.32485466 2.1953125 25.8203125 C2.19158383 28.23883955 2.18873617 30.65736811 2.18673706 33.07589722 C2.17908908 39.45131579 2.15943059 45.8266437 2.1373291 52.20202637 C2.11689573 58.70368218 2.10774072 65.2053526 2.09765625 71.70703125 C2.07618581 84.47139407 2.04203584 97.23568951 2 110 C8.27 110 14.54 110 21 110 C21 112.97 21 115.94 21 119 C3.84 119 -13.32 119 -31 119 C-31 116.03 -31 113.06 -31 110 C-24.73 110 -18.46 110 -12 110 C-12 78.32 -12 46.64 -12 14 C-15.3 13.67 -18.6 13.34 -22 13 C-28.84210526 12.15789474 -28.84210526 12.15789474 -30 11 C-30.14115161 8.32941149 -30.04247107 5.67567762 -30 3 C-20.3447518 0.88406263 -9.92081209 -1.1256306 0 0 Z " fill="#F4F2F1" transform="translate(505,571)" /><path d="M0 0 C6.15008136 5.19340203 8.78971111 10.26398888 11 18 C11 23.61 11 29.22 11 35 C-8.47 35 -27.94 35 -48 35 C-46.83252818 17.48792271 -46.83252818 17.48792271 -43 11 C-42.401875 9.948125 -41.80375 8.89625 -41.1875 7.8125 C-31.49333896 -4.65142133 -13.80686757 -9.2346587 0 0 Z " fill="#883A16" transform="translate(321,585)" /><path d="M0 0 C2 3 2 3 1.93017578 6.39135742 C0.81062758 10.73467554 -0.45092768 11.91497293 -3.8828125 14.73828125 C-9.5711563 19.61105836 -14.83381276 24.79877751 -20.0546875 30.16796875 C-21.67405692 31.81877369 -23.29385419 33.46915903 -24.9140625 35.11914062 C-27.41630911 37.67110566 -29.91350574 40.22730591 -32.3984375 42.79614258 C-34.83271428 45.30886033 -37.28546202 47.80222154 -39.7421875 50.29296875 C-40.48290497 51.06779099 -41.22362244 51.84261322 -41.98678589 52.64091492 C-47.14508686 57.8262791 -47.14508686 57.8262791 -51.27758789 58.66601562 C-54.28019385 57.93145289 -55.6037777 57.18093664 -57.81640625 55.05078125 C-58.4933252 54.41092285 -59.17024414 53.77106445 -59.86767578 53.11181641 C-60.57134277 52.41491699 -61.27500977 51.71801758 -62 51 C-62.7307373 50.29407715 -63.46147461 49.5881543 -64.21435547 48.86083984 C-66.47649965 46.65661126 -68.70997767 44.42667459 -70.9375 42.1875 C-71.70384766 41.42501953 -72.47019531 40.66253906 -73.25976562 39.87695312 C-73.98744141 39.14798828 -74.71511719 38.41902344 -75.46484375 37.66796875 C-76.120896 37.01078857 -76.77694824 36.3536084 -77.45288086 35.67651367 C-79.59803812 33.35194449 -79.97780841 32.26075119 -80.25 29.0625 C-80 26 -80 26 -78.9375 24.0625 C-76.53837317 22.7468498 -74.76104613 22.73860998 -72.08374023 23.1730957 C-67.33299672 25.05836439 -63.99652374 29.41263915 -60.5625 33.0625 C-59.73556641 33.91650391 -58.90863281 34.77050781 -58.05664062 35.65039062 C-56.0235296 37.75401417 -54.0057563 39.87033353 -52 42 C-48.64803688 40.54454619 -46.46799449 38.70664227 -43.90576172 36.11694336 C-43.11168915 35.31949203 -42.31761658 34.52204071 -41.4994812 33.70042419 C-40.22743332 32.40818687 -40.22743332 32.40818687 -38.9296875 31.08984375 C-38.05224884 30.20720352 -37.17481018 29.32456329 -36.27078247 28.41517639 C-33.94347304 26.07307161 -31.62028733 23.72698316 -29.29943848 21.378479 C-26.02330685 18.06430506 -22.74193282 14.75535053 -19.45779419 11.44911194 C-17.70998749 9.68901146 -15.96486025 7.92624555 -14.22262573 6.16062927 C-13.43485748 5.36633011 -12.64708923 4.57203094 -11.83544922 3.75366211 C-11.14135956 3.05131943 -10.4472699 2.34897675 -9.73214722 1.62535095 C-6.39804746 -1.50318348 -4.33245414 -1.08311353 0 0 Z " fill="#E0DEE4" transform="translate(625,160)" /><path d="M0 0 C3.12670109 2.31596859 3.66939033 4.74556939 4.46484375 8.4609375 C4.70533447 9.56147461 4.9458252 10.66201172 5.19360352 11.79589844 C5.43908936 12.97700195 5.6845752 14.15810547 5.9375 15.375 C6.19909912 16.59219727 6.46069824 17.80939453 6.73022461 19.06347656 C8.44438974 27.11461844 10.03236686 35.18652953 11.53100586 43.28027344 C12.73657787 49.75563287 14.08889487 56.19147111 15.5 62.625 C15.70842529 63.57906738 15.91685059 64.53313477 16.1315918 65.51611328 C17.15338624 70.18091364 18.18979026 74.84201284 19.2421875 79.5 C19.62003805 81.20827886 19.99765406 82.91660961 20.375 84.625 C20.55482422 85.40053223 20.73464844 86.17606445 20.91992188 86.97509766 C21.78531282 90.9338197 22.34235322 94.1172794 21 98 C19 100 19 100 15.5625 100.375 C12 100 12 100 10.40551758 98.51147461 C8.43994486 94.99925531 7.73570503 91.34629685 6.94921875 87.44140625 C6.76983261 86.592901 6.59044647 85.74439575 6.40562439 84.87017822 C5.82308959 82.10290599 5.25517218 79.3328557 4.6875 76.5625 C4.28848243 74.65240285 3.88857474 72.74249143 3.48779297 70.83276367 C2.49575645 66.09421427 1.5153801 61.35334448 0.53887939 56.61157227 C-0.23964069 52.83862883 -1.02786847 49.06773488 -1.81640625 45.296875 C-3.02951349 39.48374752 -4.22637837 33.66749034 -5.4140625 27.84912109 C-5.94270992 25.27857302 -6.48371336 22.71110923 -7.03125 20.14453125 C-7.17771973 19.44674561 -7.32418945 18.74895996 -7.47509766 18.0300293 C-7.83106371 16.33430092 -8.19249202 14.63972125 -8.5546875 12.9453125 C-9.83970537 4.44615924 -9.83970537 4.44615924 -7.875 1.0625 C-5.11019567 -0.50422245 -3.11811483 -0.38976435 0 0 Z " fill="#E0DDE3" transform="translate(515,235)" /><path d="M0 0 C3.4375 0.875 3.4375 0.875 5.4375 3.875 C5.64501676 10.40671666 3.57230648 17.13439197 2.0625 23.4375 C0.2664621 31.12950564 -1.34619677 38.80630804 -2.7578125 46.578125 C-5.26237021 60.17429543 -8.25577327 73.69217248 -11.25 87.1875 C-11.45222168 88.11836426 -11.65444336 89.04922852 -11.86279297 90.00830078 C-12.05631348 90.86794434 -12.24983398 91.72758789 -12.44921875 92.61328125 C-12.61639404 93.36649658 -12.78356934 94.11971191 -12.95581055 94.89575195 C-13.5625 96.875 -13.5625 96.875 -15.5625 99.875 C-21.6149704 100.5352695 -21.6149704 100.5352695 -24.2890625 98.671875 C-27.04744408 94.77968013 -25.27235597 89.3115998 -24.5625 84.875 C-23.83005658 81.48572171 -23.04292663 78.12099246 -22.20996094 74.75561523 C-20.86659079 69.30217215 -19.75988379 63.83671506 -18.75 58.3125 C-17.01833598 48.93830642 -15.03834427 39.62373171 -13 30.3125 C-12.85211029 29.63404022 -12.70422058 28.95558044 -12.55184937 28.25656128 C-11.577028 23.79102577 -10.57585825 19.33198273 -9.5625 14.875 C-9.3061377 13.7111377 -9.04977539 12.54727539 -8.78564453 11.34814453 C-8.5379834 10.2754834 -8.29032227 9.20282227 -8.03515625 8.09765625 C-7.8225415 7.15801025 -7.60992676 6.21836426 -7.39086914 5.25024414 C-5.87215249 0.89551549 -4.65373557 -0.16328897 0 0 Z " fill="#E0DDE3" transform="translate(660.5625,235.125)" /><path d="M0 0 C5.05990369 2.84199524 8.62290845 6.70540502 10.68359375 12.15625 C11.55435246 17.07256909 11.36798641 21.48638449 9.05859375 25.96875 C5.88001511 30.23473713 2.85094866 33.43379836 -2.31640625 35.15625 C-7.88186116 35.64613853 -12.72321577 35.92439541 -17.81640625 33.46875 C-23.1243851 28.55886956 -26.05002126 24.51270084 -26.62890625 17.21875 C-26.46791518 11.865797 -24.46278647 8.45346972 -20.94140625 4.46875 C-14.65088811 -1.07289694 -8.21821803 -2.99348245 0 0 Z " fill="#883A17" transform="translate(515.31640625,435.84375)" /><path d="M0 0 C4.75814358 2.66873921 8.00029965 6.12589896 9.75 11.375 C10.49028337 18.20745139 9.89353976 23.76317888 5.75 29.375 C2.78303829 32.95101543 0.05146193 34.17227525 -4.53515625 34.88671875 C-10.32281586 35.16526921 -15.08225136 35.15766525 -19.9375 31.75 C-24.93159712 27.13019281 -26.41213872 23.13386771 -26.6875 16.375 C-26.51628874 10.35283009 -25.15208136 7.14826835 -20.75390625 2.9453125 C-14.65354162 -2.4400468 -7.42618271 -3.39603422 0 0 Z " fill="#873916" transform="translate(651.25,436.625)" /><path d="M0 0 C17.44985673 0 17.44985673 0 22 4 C25.58399932 8.81495236 25.61672899 12.9807902 25.484375 18.82421875 C24.8711621 22.84471944 23.60313078 24.87018951 20.80078125 27.73046875 C13.87809315 32.61088877 9.16324531 31 0 31 C0 20.77 0 10.54 0 0 Z " fill="#893C19" transform="translate(604,718)" /><path d="M0 0 C15.13793103 0 15.13793103 0 20 3 C24.20509267 7.53707367 25.37679252 10.49539497 25.26953125 16.55078125 C24.74090452 21.35438938 23.0870747 25.17957858 19.41015625 28.38671875 C12.90824207 32.3043626 8.15059151 31 0 31 C0 20.77 0 10.54 0 0 Z " fill="#8A3D1A" transform="translate(415,718)" /><path d="M0 0 C3.4375 0.875 3.4375 0.875 5.4375 3.875 C5.69819641 6.11376953 5.69819641 6.11376953 5.7121582 8.7578125 C5.72169022 9.74894043 5.73122223 10.74006836 5.74104309 11.76123047 C5.74013168 12.83002441 5.73922028 13.89881836 5.73828125 15 C5.74256638 16.09844238 5.7468515 17.19688477 5.75126648 18.32861328 C5.75701185 20.65201121 5.75750853 22.97542713 5.75317383 25.29882812 C5.75001244 28.86098766 5.77347628 32.42231812 5.79882812 35.984375 C5.80110087 38.23958228 5.80180473 40.4947918 5.80078125 42.75 C5.809991 43.81879395 5.81920074 44.88758789 5.82868958 45.98876953 C5.82246078 46.97989746 5.81623199 47.97102539 5.80981445 48.9921875 C5.81044388 49.86472168 5.8110733 50.73725586 5.8117218 51.63623047 C5.35317842 54.37945105 4.68531074 55.26874909 2.4375 56.875 C-1.125 57.1875 -1.125 57.1875 -4.5625 56.875 C-7.10011681 54.33738319 -6.8193572 53.43907197 -6.8371582 49.92211914 C-6.84669022 48.89087418 -6.85622223 47.85962921 -6.86604309 46.7971344 C-6.86513168 45.67943161 -6.86422028 44.56172882 -6.86328125 43.41015625 C-6.86756638 42.26590683 -6.8718515 41.12165741 -6.87626648 39.94273376 C-6.88201784 37.5192023 -6.88250415 35.09565356 -6.87817383 32.67211914 C-6.87501593 28.95624433 -6.8984569 25.24116678 -6.92382812 21.52539062 C-6.92610116 19.17448018 -6.92680459 16.82356758 -6.92578125 14.47265625 C-6.934991 13.35697769 -6.94420074 12.24129913 -6.95368958 11.09181213 C-6.94746078 10.05741501 -6.94123199 9.02301788 -6.93481445 7.95727539 C-6.93575859 6.59065514 -6.93575859 6.59065514 -6.9367218 5.19642639 C-6.5625 2.875 -6.5625 2.875 -5.2618866 1.04954529 C-3.5625 -0.125 -3.5625 -0.125 0 0 Z " fill="#E2E1E7" transform="translate(586.5625,278.125)" /><path d="M0 0 C2.5625 1.875 2.5625 1.875 4 5 C4.77726826 10.37542365 4.65246649 14.62257075 2.3125 19.5625 C-1.28205794 23.35135837 -3.62630055 23.95496067 -8.8125 24.125 C-10.3903125 24.063125 -10.3903125 24.063125 -12 24 C-12.33 26.64 -12.66 29.28 -13 32 C-14.32 32 -15.64 32 -17 32 C-17 21.44 -17 10.88 -17 0 C-16.01 0 -15.02 0 -14 0 C-14 0.66 -14 1.32 -14 2 C-13.0409375 1.2265625 -13.0409375 1.2265625 -12.0625 0.4375 C-7.80317951 -1.56177288 -4.47484273 -1.31907677 0 0 Z " fill="#DFDAE0" transform="translate(312,726)" /><path d="M0 0 C2.47555146 1.92542891 3.36131106 2.76077355 4.25 5.75 C4.70384141 11.37763352 4.41579197 14.88824805 1.25 19.75 C-1.33712235 22.62458039 -2.76830387 22.7523243 -6.6875 23.25 C-9.81433486 23.08635257 -10.92146044 22.64998141 -13.75 21 C-16.73627587 16.14730171 -16.63755509 11.3120119 -15.75 5.75 C-14.37370636 3.03911858 -13.40189878 1.22206464 -10.9375 -0.5625 C-6.88938379 -1.83476509 -3.87012891 -1.75914951 0 0 Z " fill="#F4F2F1" transform="translate(502.75,525.25)" /><path d="M0 0 C17.44985673 0 17.44985673 0 22 4 C25.58399932 8.81495236 25.61672899 12.9807902 25.484375 18.82421875 C24.8711621 22.84471944 23.60313078 24.87018951 20.80078125 27.73046875 C13.87809315 32.61088877 9.16324531 31 0 31 C0 20.77 0 10.54 0 0 Z M5 3 C5 11.25 5 19.5 5 28 C13.28122599 28.76770776 13.28122599 28.76770776 16.9375 26.25 C20.72864233 22.11420837 21.44186645 18.74714886 21.32421875 13.25390625 C20.82304045 9.76981134 19.25055134 7.63636014 17 5 C13.35284977 2.16794971 13.35284977 2.16794971 5 3 Z " fill="#DBD4D8" transform="translate(604,718)" /><path d="M0 0 C2.875 1.5 2.875 1.5 5 3 C5.515625 2.505 6.03125 2.01 6.5625 1.5 C9.94888329 -0.58392818 12.09385318 -0.55802097 16 0 C18.48760052 2.16562385 19.83785783 3.87676509 20.31640625 7.19189453 C20.39362463 9.74365718 20.34891638 12.26159876 20.25 14.8125 C20.23195313 15.69615234 20.21390625 16.57980469 20.1953125 17.49023438 C20.14838513 19.66062543 20.07664731 21.83045519 20 24 C18.68 24 17.36 24 16 24 C15.505 14.1 15.505 14.1 15 4 C12.69 4 10.38 4 8 4 C5.64641749 6.35358251 5.72128096 6.92968394 5.5859375 10.1328125 C5.54726563 10.93847656 5.50859375 11.74414062 5.46875 12.57421875 C5.42234375 13.83685547 5.42234375 13.83685547 5.375 15.125 C5.33632813 15.97449219 5.29765625 16.82398438 5.2578125 17.69921875 C5.16343506 19.79911684 5.08062414 21.89952891 5 24 C3.68 24 2.36 24 1 24 C0.67 17.4 0.34 10.8 0 4 C-2.31 4 -4.62 4 -7 4 C-9.35358251 6.35358251 -9.27871904 6.92968394 -9.4140625 10.1328125 C-9.45273437 10.93847656 -9.49140625 11.74414062 -9.53125 12.57421875 C-9.5621875 13.41597656 -9.593125 14.25773438 -9.625 15.125 C-9.66367187 15.97449219 -9.70234375 16.82398438 -9.7421875 17.69921875 C-9.83656494 19.79911684 -9.91937586 21.89952891 -10 24 C-11.32 24 -12.64 24 -14 24 C-14 16.41 -14 8.82 -14 1 C-13.01 1 -12.02 1 -11 1 C-11 1.66 -11 2.32 -11 3 C-10.29875 2.505 -9.5975 2.01 -8.875 1.5 C-5.52269394 -0.24902925 -3.73275441 -0.4665943 0 0 Z " fill="#DFDBE0" transform="translate(821,725)" /><path d="M0 0 C15.13793103 0 15.13793103 0 20 3 C24.20509267 7.53707367 25.37679252 10.49539497 25.26953125 16.55078125 C24.74090452 21.35438938 23.0870747 25.17957858 19.41015625 28.38671875 C12.90824207 32.3043626 8.15059151 31 0 31 C0 20.77 0 10.54 0 0 Z M4 3 C4 11.25 4 19.5 4 28 C12.44765636 28.8268859 12.44765636 28.8268859 16.5 25.6875 C20.32852616 21.57183438 20.39491721 17.91217403 20.35546875 12.515625 C19.77359858 8.39777457 18.0459204 6.76257897 15 4 C11.26213521 2.57836298 11.26213521 2.57836298 4 3 Z " fill="#DEDADF" transform="translate(415,718)" /><path d="M0 0 C0.99 0 1.98 0 3 0 C4.71348735 4.09155867 6.42236208 8.18500311 8.12695312 12.28027344 C8.7077131 13.67370761 9.28973926 15.06661475 9.87304688 16.45898438 C10.71035383 18.45826832 11.54311689 20.45939176 12.375 22.4609375 C13.12910156 24.26763916 13.12910156 24.26763916 13.8984375 26.11083984 C15 29 15 29 15 31 C13.35 31 11.7 31 10 31 C9.01 28.36 8.02 25.72 7 23 C3.04 23 -0.92 23 -5 23 C-5.99 25.64 -6.98 28.28 -8 31 C-9.32 31 -10.64 31 -12 31 C-11.34692236 27.12945021 -10.21092807 23.71773141 -8.75 20.078125 C-8.3065625 18.97082031 -7.863125 17.86351562 -7.40625 16.72265625 C-6.9421875 15.57667969 -6.478125 14.43070313 -6 13.25 C-5.5359375 12.08855469 -5.071875 10.92710937 -4.59375 9.73046875 C-1.13576321 1.13576321 -1.13576321 1.13576321 0 0 Z " fill="#DDD8DD" transform="translate(269,718)" /><path d="M0 0 C1.26457031 -0.05607422 1.26457031 -0.05607422 2.5546875 -0.11328125 C6.27298245 0.50266731 7.68729104 1.40716658 10.125 4.3125 C10.7371109 7.74877181 10.59572862 11.08633902 10.4375 14.5625 C10.41494141 15.49835937 10.39238281 16.43421875 10.36914062 17.3984375 C10.31030595 19.70475674 10.22817146 22.00780838 10.125 24.3125 C9.135 24.3125 8.145 24.3125 7.125 24.3125 C6.465 23.6525 5.805 22.9925 5.125 22.3125 C4.135 22.9725 3.145 23.6325 2.125 24.3125 C-4.79427512 24.97147858 -4.79427512 24.97147858 -8.4375 22.75 C-9.875 20.3125 -9.875 20.3125 -9.9375 16.75 C-8.875 13.3125 -8.875 13.3125 -6.9375 11.375 C-2.5684701 9.85921412 1.54616246 10.07244444 6.125 10.3125 C5.465 8.3325 4.805 6.3525 4.125 4.3125 C2.2378125 4.2815625 2.2378125 4.2815625 0.3125 4.25 C-0.39519531 4.23839844 -1.10289062 4.22679687 -1.83203125 4.21484375 C-4.07805461 4.22986783 -4.07805461 4.22986783 -6.875 5.3125 C-7.205 3.9925 -7.535 2.6725 -7.875 1.3125 C-5.02346484 0.36198828 -2.97600259 0.08593321 0 0 Z " fill="#DBD3D6" transform="translate(862.875,724.6875)" /><path d="M0 0 C3.0625 2 3.0625 2 5 5 C5 7.64 5 10.28 5 13 C-0.61 13 -6.22 13 -12 13 C-9.98848737 19.77489892 -9.98848737 19.77489892 -7 21 C-3.04437178 21.25797575 -0.40340307 21.09440189 3 19 C3.33 20.32 3.66 21.64 4 23 C-0.31907319 25.44845419 -4.12424617 25.70524296 -9 25 C-12.09098636 23.22432699 -13.52950156 21.80656876 -15.3125 18.75 C-16.68394523 13.26421908 -16.83999618 9.56413081 -14.1875 4.625 C-10.01320546 -0.38415344 -6.20379249 -1.03215462 0 0 Z " fill="#DDD7DB" transform="translate(657,725)" /><path d="M0 0 C0.85464844 -0.00515625 1.70929687 -0.0103125 2.58984375 -0.015625 C5.21923987 0.26683777 6.83912569 0.83738635 9.0625 2.25 C10.26279908 4.65059817 10.17709743 6.14360649 10.16015625 8.8203125 C10.15693359 9.71621094 10.15371094 10.61210938 10.15039062 11.53515625 C10.14201172 12.47230469 10.13363281 13.40945313 10.125 14.375 C10.12048828 15.31988281 10.11597656 16.26476562 10.11132812 17.23828125 C10.09952357 19.57558387 10.08305759 21.91276061 10.0625 24.25 C9.0725 24.25 8.0825 24.25 7.0625 24.25 C7.0625 23.26 7.0625 22.27 7.0625 21.25 C6.216875 21.745 5.37125 22.24 4.5 22.75 C0.6535193 24.4284643 -1.78521187 24.72007035 -5.9375 24.25 C-7.875 23.1875 -7.875 23.1875 -8.9375 21.25 C-9.4375 17.8125 -9.4375 17.8125 -8.9375 14.25 C-7.0625 11.8125 -7.0625 11.8125 -3.9375 10.25 C-0.57520865 9.93687058 2.69714065 10.01475158 6.0625 10.25 C5.4025 8.27 4.7425 6.29 4.0625 4.25 C0.4325 4.58 -3.1975 4.91 -6.9375 5.25 C-7.2675 4.26 -7.5975 3.27 -7.9375 2.25 C-4.71002945 0.09835297 -3.73244361 -0.02245079 0 0 Z " fill="#DDD7DB" transform="translate(894.9375,724.75)" /><path d="M0 0 C0.85207031 -0.02578125 1.70414063 -0.0515625 2.58203125 -0.078125 C6.08544253 0.36308422 7.62778601 0.74038717 10.1875 3.25 C10.82059782 6.82481619 10.65513224 10.32172539 10.5 13.9375 C10.47744141 14.92556641 10.45488281 15.91363281 10.43164062 16.93164062 C10.37267988 19.37261559 10.29045048 21.81054868 10.1875 24.25 C9.1975 23.92 8.2075 23.59 7.1875 23.25 C6.8575 22.59 6.5275 21.93 6.1875 21.25 C5.48625 21.745 4.785 22.24 4.0625 22.75 C0.72949763 24.48895776 -1.10315683 24.72353317 -4.8125 24.25 C-7.1875 23.1875 -7.1875 23.1875 -8.8125 21.25 C-9.375 17.8125 -9.375 17.8125 -8.8125 14.25 C-6.9375 11.8125 -6.9375 11.8125 -3.8125 10.25 C-0.45020865 9.93687058 2.82214065 10.01475158 6.1875 10.25 C6.1875 8.27 6.1875 6.29 6.1875 4.25 C4.77094207 4.2227585 3.35422955 4.20349533 1.9375 4.1875 C1.14859375 4.17589844 0.3596875 4.16429687 -0.453125 4.15234375 C-2.71941002 4.24614694 -4.6413895 4.61758937 -6.8125 5.25 C-6.8125 3.93 -6.8125 2.61 -6.8125 1.25 C-4.38715731 0.03732866 -2.70623446 0.04868788 0 0 Z " fill="#DDD7DC" transform="translate(525.8125,724.75)" /><path d="M0 0 C0.85207031 -0.02578125 1.70414062 -0.0515625 2.58203125 -0.078125 C6.08544253 0.36308422 7.62778601 0.74038717 10.1875 3.25 C10.82059782 6.82481619 10.65513224 10.32172539 10.5 13.9375 C10.47744141 14.92556641 10.45488281 15.91363281 10.43164062 16.93164062 C10.37267988 19.37261559 10.29045048 21.81054868 10.1875 24.25 C9.1975 23.92 8.2075 23.59 7.1875 23.25 C6.8575 22.59 6.5275 21.93 6.1875 21.25 C5.48625 21.745 4.785 22.24 4.0625 22.75 C0.72949763 24.48895776 -1.10315683 24.72353317 -4.8125 24.25 C-7.1875 23.1875 -7.1875 23.1875 -8.8125 21.25 C-9.375 17.8125 -9.375 17.8125 -8.8125 14.25 C-6.9375 11.8125 -6.9375 11.8125 -3.8125 10.25 C-0.45020865 9.93687058 2.82214065 10.01475158 6.1875 10.25 C6.1875 8.27 6.1875 6.29 6.1875 4.25 C4.77094207 4.2227585 3.35422955 4.20349533 1.9375 4.1875 C1.14859375 4.17589844 0.3596875 4.16429687 -0.453125 4.15234375 C-2.71941002 4.24614694 -4.6413895 4.61758937 -6.8125 5.25 C-6.8125 3.93 -6.8125 2.61 -6.8125 1.25 C-4.38715731 0.03732866 -2.70623446 0.04868788 0 0 Z " fill="#DDD7DC" transform="translate(370.8125,724.75)" /><path d="M0 0 C0.9590625 -0.02578125 1.918125 -0.0515625 2.90625 -0.078125 C5.5 0.25 5.5 0.25 7.13012695 1.46508789 C8.90777248 3.78131788 8.92381064 5.23575101 9.01171875 8.13671875 C9.06489258 9.5434082 9.06489258 9.5434082 9.11914062 10.97851562 C9.14169922 11.95498047 9.16425781 12.93144531 9.1875 13.9375 C9.23874023 15.41959961 9.23874023 15.41959961 9.29101562 16.93164062 C9.37350538 19.37098053 9.44265068 21.80996063 9.5 24.25 C8.51 24.25 7.52 24.25 6.5 24.25 C5.84 23.26 5.18 22.27 4.5 21.25 C3.79875 21.745 3.0975 22.24 2.375 22.75 C-0.97321887 24.4968968 -2.7758163 24.80466566 -6.5 24.25 C-8.9375 22.6875 -8.9375 22.6875 -10.5 20.25 C-10.5 16.6875 -10.5 16.6875 -9.5 13.25 C-7.29302509 11.08279041 -6.01497541 10.30851993 -2.921875 9.95703125 C-2.04015625 9.99183594 -1.1584375 10.02664063 -0.25 10.0625 C1.08804688 10.10310547 1.08804688 10.10310547 2.453125 10.14453125 C3.12859375 10.17933594 3.8040625 10.21414063 4.5 10.25 C4.5 8.27 4.5 6.29 4.5 4.25 C3.08344207 4.2227585 1.66672955 4.20349533 0.25 4.1875 C-0.53890625 4.17589844 -1.3278125 4.16429687 -2.140625 4.15234375 C-4.40691002 4.24614694 -6.3288895 4.61758937 -8.5 5.25 C-8.5 3.93 -8.5 2.61 -8.5 1.25 C-5.45059327 0.23353109 -3.19630097 0.05155324 0 0 Z " fill="#DCD5D9" transform="translate(783.5,724.75)" /><path d="M0 0 C2.3046875 1.02734375 2.3046875 1.02734375 4 2 C3.67 2.99 3.34 3.98 3 5 C2.319375 4.835 1.63875 4.67 0.9375 4.5 C-2.45315882 3.92286658 -5.56650292 3.80565111 -9 4 C-9.66 4.66 -10.32 5.32 -11 6 C-10.83295196 8.58924461 -10.31302555 9.69949547 -8.4375 11.5 C-5.64481346 13.21857633 -2.77100564 14.64154641 0.1953125 16.03515625 C2 17 2 17 4 19 C4.40463307 22.08532717 4.61747875 24.03723497 4 27 C1.23877903 30.5821245 -0.24267275 31.75909655 -4.70703125 32.37109375 C-9.37195975 32.47725678 -12.90609098 32.39291865 -17 30 C-16.505 28.515 -16.505 28.515 -16 27 C-15.319375 27.165 -14.63875 27.33 -13.9375 27.5 C-8.96398073 28.34655647 -5.28534391 28.85689594 -1 26 C-0.74969023 23.41619823 -0.74969023 23.41619823 -1 21 C-1.83144531 20.61328125 -2.66289063 20.2265625 -3.51953125 19.828125 C-4.60621094 19.30734375 -5.69289063 18.7865625 -6.8125 18.25 C-7.89144531 17.73953125 -8.97039063 17.2290625 -10.08203125 16.703125 C-12.96478625 15.02055314 -14.34407131 13.85563213 -16 11 C-16.5625 8.0625 -16.5625 8.0625 -16 5 C-11.48010821 -0.47144795 -6.88830197 -1.07984932 0 0 Z " fill="#DCD6DA" transform="translate(758,718)" /><path d="M0 0 C1.32 0 2.64 0 4 0 C4 5.94 4 11.88 4 18 C8.72374181 13.55371691 8.72374181 13.55371691 11 10.1875 C13 8 13 8 15.75 7.6875 C16.4925 7.790625 17.235 7.89375 18 8 C12.85046729 15.81308411 12.85046729 15.81308411 11 18 C10.34 18 9.68 18 9 18 C9 18.66 9 19.32 9 20 C9.59296875 20.24621094 10.1859375 20.49242187 10.796875 20.74609375 C13.35072531 22.19961494 14.54281621 23.68710033 16.25 26.0625 C16.77078125 26.77535156 17.2915625 27.48820313 17.828125 28.22265625 C19 30 19 30 19 31 C16.73828125 31.2421875 16.73828125 31.2421875 14 31 C11.98046875 29.3203125 11.98046875 29.3203125 10.1875 27.125 C9.58292969 26.40570312 8.97835938 25.68640625 8.35546875 24.9453125 C7 23 7 23 7 21 C6.01 21 5.02 21 4 21 C4 24.3 4 27.6 4 31 C2.68 31 1.36 31 0 31 C0 20.77 0 10.54 0 0 Z " fill="#DCD5D9" transform="translate(488,718)" /><path d="M0 0 C3.34831881 0.99403215 4.28108084 2.5932473 6 5.59375 C6.47183016 8.88264067 6.37849509 12.09255937 6.25 15.40625 C6.23195313 16.28990234 6.21390625 17.17355469 6.1953125 18.08398438 C6.14838513 20.25437543 6.07664731 22.42420519 6 24.59375 C4.68 24.59375 3.36 24.59375 2 24.59375 C1.95101562 23.40136719 1.90203125 22.20898438 1.8515625 20.98046875 C1.77652396 19.41403932 1.7009766 17.84763421 1.625 16.28125 C1.5940625 15.49556641 1.563125 14.70988281 1.53125 13.90039062 C1.49257813 13.14306641 1.45390625 12.38574219 1.4140625 11.60546875 C1.36693115 10.56072388 1.36693115 10.56072388 1.31884766 9.49487305 C1.07881747 7.26842261 1.07881747 7.26842261 -1 4.59375 C-5.10647439 4.05235812 -5.10647439 4.05235812 -8.65942383 5.86645508 C-10.26101712 7.93006327 -10.41449001 9.01918434 -10.51171875 11.60546875 C-10.54716797 12.36279297 -10.58261719 13.12011719 -10.61914062 13.90039062 C-10.64169922 14.68607422 -10.66425781 15.47175781 -10.6875 16.28125 C-10.72166016 17.07853516 -10.75582031 17.87582031 -10.79101562 18.69726562 C-10.87338104 20.66226904 -10.93837067 22.62798696 -11 24.59375 C-12.32 24.59375 -13.64 24.59375 -15 24.59375 C-15 17.00375 -15 9.41375 -15 1.59375 C-14.01 1.59375 -13.02 1.59375 -12 1.59375 C-11.34 2.25375 -10.68 2.91375 -10 3.59375 C-9.505 3.09875 -9.01 2.60375 -8.5 2.09375 C-5.49466558 0.29054935 -3.43082283 0.16081982 0 0 Z " fill="#DBD5D8" transform="translate(934,724.40625)" /><path d="M0 0 C3 1 3 1 5 4 C5.22705078 6.17651367 5.22705078 6.17651367 5.1953125 8.66796875 C5.18886719 9.56064453 5.18242187 10.45332031 5.17578125 11.37304688 C5.15902344 12.30181641 5.14226562 13.23058594 5.125 14.1875 C5.11597656 15.12787109 5.10695313 16.06824219 5.09765625 17.03710938 C5.07409056 19.35832968 5.04119116 21.67903644 5 24 C3.68 24 2.36 24 1 24 C0.67 17.4 0.34 10.8 0 4 C-6.40407619 3.3603405 -6.40407619 3.3603405 -8.90551758 5.24926758 C-10.19545052 7.31264236 -10.42062191 8.58854277 -10.51171875 11.01171875 C-10.54716797 11.76904297 -10.58261719 12.52636719 -10.61914062 13.30664062 C-10.64169922 14.09232422 -10.66425781 14.87800781 -10.6875 15.6875 C-10.72166016 16.48478516 -10.75582031 17.28207031 -10.79101562 18.10351562 C-10.87338104 20.06851904 -10.93837067 22.03423696 -11 24 C-12.32 24 -13.64 24 -15 24 C-15 16.41 -15 8.82 -15 1 C-14.01 1 -13.02 1 -12 1 C-12 1.66 -12 2.32 -12 3 C-11.319375 2.505 -10.63875 2.01 -9.9375 1.5 C-6.36088586 -0.32635616 -3.97014116 -0.29408453 0 0 Z " fill="#DCD6DA" transform="translate(344,725)" /><path d="M0 0 C3.34831881 0.99403215 4.28108084 2.5932473 6 5.59375 C6.47183016 8.88264067 6.37849509 12.09255937 6.25 15.40625 C6.23195313 16.28990234 6.21390625 17.17355469 6.1953125 18.08398438 C6.14838513 20.25437543 6.07664731 22.42420519 6 24.59375 C4.68 24.59375 3.36 24.59375 2 24.59375 C1.95101562 23.31757812 1.90203125 22.04140625 1.8515625 20.7265625 C1.77653809 19.05726928 1.70099012 17.38799954 1.625 15.71875 C1.5940625 14.87699219 1.563125 14.03523437 1.53125 13.16796875 C1.49257813 12.36230469 1.45390625 11.55664062 1.4140625 10.7265625 C1.3826416 9.98293457 1.3512207 9.23930664 1.31884766 8.47314453 C1.14580449 6.35364026 1.14580449 6.35364026 -1 4.59375 C-5.34194936 4.69070116 -5.34194936 4.69070116 -9 6.59375 C-9.15582303 7.93390221 -9.25044142 9.28133903 -9.31640625 10.62890625 C-9.35830078 11.43779297 -9.40019531 12.24667969 -9.44335938 13.08007812 C-9.48267578 13.93021484 -9.52199219 14.78035156 -9.5625 15.65625 C-9.60568359 16.51025391 -9.64886719 17.36425781 -9.69335938 18.24414062 C-9.79976702 20.36047037 -9.90041731 22.47708813 -10 24.59375 C-11.32 24.59375 -12.64 24.59375 -14 24.59375 C-14 17.00375 -14 9.41375 -14 1.59375 C-13.01 1.59375 -12.02 1.59375 -11 1.59375 C-10.67 2.25375 -10.34 2.91375 -10 3.59375 C-9.505 3.09875 -9.01 2.60375 -8.5 2.09375 C-5.49466558 0.29054935 -3.43082283 0.16081982 0 0 Z " fill="#DED9DE" transform="translate(565,724.40625)" /><path d="M0 0 C1.32 0 2.64 0 4 0 C4.06058594 1.19238281 4.12117188 2.38476562 4.18359375 3.61328125 C4.26801149 5.17969925 4.35265887 6.74610488 4.4375 8.3125 C4.47681641 9.09818359 4.51613281 9.88386719 4.55664062 10.69335938 C4.59853516 11.45068359 4.64042969 12.20800781 4.68359375 12.98828125 C4.72025146 13.68477783 4.75690918 14.38127441 4.79467773 15.09887695 C4.95581153 17.2216572 4.95581153 17.2216572 6 20 C8.87413125 20.33397787 8.87413125 20.33397787 12 20 C15.19495736 17.10645371 15.41000445 14.14366103 15.61914062 9.9609375 C15.65297852 8.86652344 15.65297852 8.86652344 15.6875 7.75 C15.72166016 7.00492188 15.75582031 6.25984375 15.79101562 5.4921875 C15.87314054 3.66197508 15.93825653 1.83101331 16 0 C17.32 0 18.64 0 20 0 C20 7.59 20 15.18 20 23 C19.01 22.67 18.02 22.34 17 22 C17 21.34 17 20.68 17 20 C16.34 20 15.68 20 15 20 C15 20.66 15 21.32 15 22 C11.35042135 24.33573034 8.26089509 24.45652447 4 24 C1.796875 22.6171875 1.796875 22.6171875 0 20 C-0.4923751 16.57085056 -0.37581635 13.20511041 -0.25 9.75 C-0.23195313 8.81414063 -0.21390625 7.87828125 -0.1953125 6.9140625 C-0.14825673 4.60832985 -0.08253713 2.30469055 0 0 Z " fill="#DFDBE1" transform="translate(453,726)" /><path d="M0 0 C3.0625 0.5625 3.0625 0.5625 5.4375 2.625 C7.47602682 6.31002926 7.57391599 8.39811269 7.0625 12.5625 C4.76017442 18.21366279 4.76017442 18.21366279 2.0625 19.5625 C-3.47596154 19.79326923 -3.47596154 19.79326923 -5.9375 18.5625 C-6.01869503 16.31309705 -6.07677819 14.06285129 -6.125 11.8125 C-6.15980469 10.55953125 -6.19460938 9.3065625 -6.23046875 8.015625 C-5.82538208 3.24100351 -4.83848033 0.92651751 0 0 Z " fill="#8A3D1B" transform="translate(304.9375,727.4375)" /><path d="M0 0 C2.5 1 2.5 1 4 2 C4 2.99 4 3.98 4 5 C0.7 4.67 -2.6 4.34 -6 4 C-6.33 5.65 -6.66 7.3 -7 9 C-6.38511719 9.18175781 -5.77023437 9.36351562 -5.13671875 9.55078125 C-4.32847656 9.80214844 -3.52023437 10.05351563 -2.6875 10.3125 C-1.48673828 10.67794922 -1.48673828 10.67794922 -0.26171875 11.05078125 C2.16010047 12.06719243 3.42996387 12.90153747 5 15 C5 18.5 5 18.5 4 22 C1.13886088 24.68773675 -1.32156545 25.1864193 -5.125 25.3125 C-9 25 -9 25 -12 23 C-12 22.01 -12 21.02 -12 20 C-11.30132813 20.08378906 -10.60265625 20.16757812 -9.8828125 20.25390625 C-8.97273437 20.35574219 -8.06265625 20.45757813 -7.125 20.5625 C-6.22007812 20.66691406 -5.31515625 20.77132812 -4.3828125 20.87890625 C-1.98346943 21.19674852 -1.98346943 21.19674852 0 20 C-0.11448845 18.07374015 -0.11448845 18.07374015 -1 16 C-3.29847487 14.42685028 -3.29847487 14.42685028 -6.0625 13.25 C-6.98160156 12.82203125 -7.90070312 12.3940625 -8.84765625 11.953125 C-9.91306641 11.48132813 -9.91306641 11.48132813 -11 11 C-11.35820896 3.71641791 -11.35820896 3.71641791 -10 1 C-6.77484295 -0.61257853 -3.49459299 -0.42891383 0 0 Z " fill="#DAD3D6" transform="translate(686,725)" /><path d="M0 0 C0.99 0 1.98 0 3 0 C3 0.66 3 1.32 3 2 C4.32 1.67 5.64 1.34 7 1 C6.52433594 1.96486328 6.52433594 1.96486328 6.0390625 2.94921875 C4.68561702 6.92305679 4.54279839 10.64201079 4.375 14.8125 C4.33632813 15.60076172 4.29765625 16.38902344 4.2578125 17.20117188 C4.16411156 19.1337538 4.08099221 21.06684376 4 23 C2.68 23 1.36 23 0 23 C0 15.41 0 7.82 0 0 Z " fill="#E0DDE3" transform="translate(329,726)" /><path d="M0 0 C1.32 0 2.64 0 4 0 C4 7.59 4 15.18 4 23 C2.68 23 1.36 23 0 23 C0 15.41 0 7.82 0 0 Z " fill="#D9CFD1" transform="translate(705,726)" /><path d="M0 0 C1.21816406 0.03480469 1.21816406 0.03480469 2.4609375 0.0703125 C3.68683594 0.09738281 3.68683594 0.09738281 4.9375 0.125 C5.87722656 0.15980469 5.87722656 0.15980469 6.8359375 0.1953125 C7.0859375 2.5078125 7.0859375 2.5078125 6.8359375 5.1953125 C4.49276961 7.80884592 3.16378976 8.1695986 -0.3515625 8.4453125 C-3.1640625 8.1953125 -3.1640625 8.1953125 -4.1640625 7.1953125 C-4.3515625 4.7578125 -4.3515625 4.7578125 -4.1640625 2.1953125 C-2.1640625 0.1953125 -2.1640625 0.1953125 0 0 Z " fill="#8D4423" transform="translate(862.1640625,737.8046875)" /><path d="M0 0 C1.21816406 0.03480469 1.21816406 0.03480469 2.4609375 0.0703125 C3.68683594 0.09738281 3.68683594 0.09738281 4.9375 0.125 C5.87722656 0.15980469 5.87722656 0.15980469 6.8359375 0.1953125 C7.0859375 2.5078125 7.0859375 2.5078125 6.8359375 5.1953125 C5.2734375 7.0703125 5.2734375 7.0703125 2.8359375 8.1953125 C-0.9140625 7.8828125 -0.9140625 7.8828125 -4.1640625 7.1953125 C-4.2890625 4.8203125 -4.2890625 4.8203125 -4.1640625 2.1953125 C-2.1640625 0.1953125 -2.1640625 0.1953125 0 0 Z " fill="#8B411F" transform="translate(894.1640625,737.8046875)" /><path d="M0 0 C0.22223194 2.74086056 0.34781139 4.43963721 -1.125 6.8125 C-3.83445834 8.52849028 -5.86295684 8.333728 -9 8 C-9.66 7.34 -10.32 6.68 -11 6 C-10.75 3.4375 -10.75 3.4375 -10 1 C-6.78548731 -0.60725635 -3.56387464 -0.05748185 0 0 Z " fill="#8C4221" transform="translate(788,738)" /><path d="M0 0 C1.23556641 0.01740234 1.23556641 0.01740234 2.49609375 0.03515625 C3.32238281 0.04417969 4.14867187 0.05320312 5 0.0625 C5.63808594 0.07410156 6.27617188 0.08570313 6.93359375 0.09765625 C7.18359375 2.41015625 7.18359375 2.41015625 6.93359375 5.09765625 C4.76976407 7.42176961 3.46414135 8.03449582 0.30859375 8.41015625 C-2.06640625 8.09765625 -2.06640625 8.09765625 -4.06640625 6.09765625 C-3.34205084 0.15794191 -3.34205084 0.15794191 0 0 Z " fill="#8B401E" transform="translate(525.06640625,737.90234375)" /><path d="M0 0 C1.23556641 0.01740234 1.23556641 0.01740234 2.49609375 0.03515625 C3.32238281 0.04417969 4.14867187 0.05320312 5 0.0625 C5.63808594 0.07410156 6.27617187 0.08570313 6.93359375 0.09765625 C7.18359375 2.41015625 7.18359375 2.41015625 6.93359375 5.09765625 C4.76976407 7.42176961 3.46414135 8.03449582 0.30859375 8.41015625 C-2.06640625 8.09765625 -2.06640625 8.09765625 -4.06640625 6.09765625 C-3.34205084 0.15794191 -3.34205084 0.15794191 0 0 Z " fill="#8B401E" transform="translate(370.06640625,737.90234375)" /><path d="M0 0 C3.0625 0.3125 3.0625 0.3125 4.9375 1.5625 C6.0625 3.3125 6.0625 3.3125 6.0625 7.3125 C2.1025 7.3125 -1.8575 7.3125 -5.9375 7.3125 C-4.57228261 0.48641304 -4.57228261 0.48641304 0 0 Z " fill="#893D1A" transform="translate(651.9375,727.6875)" /><path d="M0 0 C0.66 0 1.32 0 2 0 C3.32 3.96 4.64 7.92 6 12 C2.7 12 -0.6 12 -4 12 C-2.68 8.04 -1.36 4.08 0 0 Z " fill="#8E4625" transform="translate(269,725)" /><path d="M0 0 C1.98 0.495 1.98 0.495 4 1 C3.67 2.32 3.34 3.64 3 5 C1.68 4.67 0.36 4.34 -1 4 C-0.67 2.68 -0.34 1.36 0 0 Z " fill="#DEDADF" transform="translate(705,717)" /></svg>